<svg xmlns="http://www.w3.org/2000/svg" width="158.121" height="164.575" viewBox="0 0 158.121 164.575">
  <defs>
    <style>
      .cls-1 {
        fill: none;
        stroke: #66e5bf;
      }
    </style>
  </defs>
  <path id="Drenthe" class="cls-1" d="M463.181,187.707c4.65.317,6.326-1.619,6.207-5.945-.3-11.1,6.822-18.243,14.212-24.947,4.009-3.638,9.89-.994,11.509,4.232a9.954,9.954,0,0,0,4.146,5.293c2.872,1.633,4.98,3.221,6.142,6.6,2.185,6.353,7.94,8.5,14.182,5.926,6.914-2.852,8.768-1.9,13.84,3.8,9.181,10.332,18.892,20.192,28.273,30.349,2.324,2.517,4.159,5.48,6.359,8.12,2.567,3.079,5.464,5.9,7.865,9.092,1.112,1.479,2.134,3.675,1.92,5.386-.991,7.926,1.377,13.088,8.655,16.209,3.1,1.331,3.435,2.839,2.6,5.854a89.862,89.862,0,0,0-2.992,35.243,64.022,64.022,0,0,1,.163,9.477c-.127,4.84-2.5,7.523-7.275,7.141-6.722-.538-13.416-1.624-20.064-2.8-8.127-1.442-15.944-2.169-23.65,2.261-1.955,1.125-5.644.305-8.079-.712-4-1.669-7.536-4.4-11.422-6.382a14.334,14.334,0,0,0-20.968,11.725c-.252,3.439-1.653,5.552-5.368,4.911-4.694-.809-9.382-1.73-13.98-2.952-.867-.231-1.254-2.125-1.947-3.2-1.107-1.715-1.913-4.214-3.5-4.923a191.777,191.777,0,0,0-17.988-6.795c-2.821-.935-5.933-.956-8.83-1.708-6.758-1.751-11.4-10.433-8.911-16.839.54-1.39,2.148-2.4,3.353-3.487,1.778-1.6,3.776-2.986,5.426-4.707,2.377-2.479,2.295-4.911-.352-7.416-3.383-3.2-6.523-6.662-9.743-10.034-1.724-1.805.159-7.695,3.806-8.841,6.463-2.03,10.182-7.237,15.041-11.12,3.158-2.524,5.87-4.177,9.584-.234,3.514,3.731,10.322,2.988,13.586-1.383a70.144,70.144,0,0,0,6.776-12.165c1.26-2.672.137-4.961-2.534-6.4-5.953-3.2-9.03-7.655-8.28-14.942C471.541,195.667,468.583,190.967,463.181,187.707Z" transform="translate(-431.759 -154.584)"/>
</svg>
