<svg xmlns="http://www.w3.org/2000/svg" width="140.406" height="159.966" viewBox="0 0 140.406 159.966">
  <defs>
    <style>
      .cls-1 {
        fill: none;
        stroke: #66e5bf;
      }
    </style>
  </defs>
  <g id="Flevoland" transform="translate(0.495 0.48)">
    <path id="Flevoland-2" data-name="Flevoland" class="cls-1" d="M278.348,373.035c-1.2-5.74,2.941-8.791,8.247-11.766a63.672,63.672,0,0,1,21.456-7.713c1.494-.236,3-2.12,3.964-3.6,1.67-2.563,3.381-3.6,6.339-1.986.981.534,2.412.244,3.637.33a27.057,27.057,0,0,1,.136-3.311c.325-2.045.391-4.266,1.282-6.058a116.7,116.7,0,0,1,6.574-11.287c1.729-2.671,3.767-4.973,7.6-4.743,1.107.067,2.777-1.191,3.392-2.287,4.012-7.14,10.466-10.593,18.113-12.075a10.267,10.267,0,0,1,5.956.976c7.247,3.485,14.492,6.518,22.846,5.885,4.043-.306,6.7,2.314,8.475,5.732,4.641,8.943,3.212,17.54-2.037,25.61-5.053,7.768-10.711,14.866-20.922,16.334a9.255,9.255,0,0,0-7.708,6.835c-1.2,3.986-3.831,5.518-7.856,5.03-1.193-.144-2.4-.163-3.606-.228-3.385-.183-4.324,1.372-4.158,4.71a58.835,58.835,0,0,1-.68,12.3c-.958,5.882-5.362,8.379-10.6,10.476-8.242,3.3-14.462,2.3-20.507-4.87-4.761-5.647-10.922-10.322-17.08-14.523-4.553-3.106-9.888-4.916-15.215-.077-2.6,2.361-7.076-.265-7.613-4.088A48.129,48.129,0,0,1,278.348,373.035Z" transform="translate(-278.141 -244.868)"/>
    <path id="Path_72" data-name="Path 72" class="cls-1" d="M416.882,286.192c-4.569,5.744-7.964,10.013-12,15.089l12.062,2.626-.052,1.6c-11.452.2-21.217,7.213-33.143,6.174-5.133-.448-10.458,1.166-15.706,1.754-4.619.516-7.9-1.439-10.5-4.987-1.973-2.692-4.471-5.033-6.55-7.661-1.066-1.35-2.292-2.929-2.47-4.5a116.5,116.5,0,0,1-1.149-17.311,16.038,16.038,0,0,1,5.569-11.543c4.135-3.862,6.645-9.26,9.989-13.908,3.77-5.239,6.137-5.862,12.025-2.8,2.58,1.342,5.687,2.914,6.945,5.181,3.361,6.056,9.374,8.9,14.623,12.854C403.781,274.227,410.337,280.522,416.882,286.192Z" transform="translate(-277.661 -248.879)"/>
  </g>
</svg>
