<svg xmlns="http://www.w3.org/2000/svg" width="176.547" height="165.766" viewBox="0 0 176.547 165.766">
  <defs>
    <style>
      .cls-1 {
        fill: none;
        stroke: #66e5bf;
      }
    </style>
  </defs>
  <path id="Friesland" class="cls-1" d="M463.983,125.833c-3.155,6.432-5.945,11.82-8.435,17.342-1.055,2.341-2.618,5.314-1.98,7.4,2.047,6.676-.787,11.516-4.883,15.919-2.756,2.963-4.287,6-2.346,9.694,2.115,4.02,4.7,7.789,9.916,8.3,5.188.5,10.149,1.231,12.54,7.032.609,1.48,2.5,2.611,4.042,3.495,4.473,2.566,6.481,6.673,5.784,11.367-1.152,7.759,2.882,12.27,8.687,15.812,2.712,1.653,3.13,3.307,1.646,5.865-1.8,3.115-3.194,6.542-5.392,9.339-3.288,4.185-7.49,4.465-11.308.785-3.417-3.294-6.63-3.141-10.022-.477-2.483,1.949-4.633,4.325-7.154,6.217-2.587,1.943-5.525,3.416-8.152,5.311-1.658,1.194-3.5,2.527-4.447,4.244-4.265,7.716-12.562,8.81-19.493,12.077-.888.419-2.71-.781-3.936-1.5-3.638-2.144-6.891-2.466-10.169.864-3.616,3.674-7.8,5.464-13.051,3.006a7.874,7.874,0,0,0-5.259-.677c-4.151,1.4-6.641-.272-9.683-2.97-9.352-8.292-24.9-9.415-35.93-3.5a6.366,6.366,0,0,1-5.544-.294,23.147,23.147,0,0,0-15.249-4.464c-4.96.267-8.343-2.282-9.789-7.038a4.744,4.744,0,0,1,.962-3.919,19.3,19.3,0,0,0,5.506-14.818c-.525-8.662-1.8-17.281-2.811-25.91a4.594,4.594,0,0,0-.974-2.5c-4.655-4.935-2.377-9.6-.292-14.888a199.566,199.566,0,0,0,7.624-24.453,16.013,16.013,0,0,1,7.635-10.6A40.867,40.867,0,0,0,344.4,140.274c2.2-3.045,6.064-5.185,9.578-6.937,9.411-4.69,19-9.034,28.591-13.347,4.454-2,9.077-3.632,13.638-5.39,1.823-.7,3.993-.891,5.483-2.008,7.021-5.263,15.238-5.981,23.506-6.738a38.023,38.023,0,0,0,6.188-1.177c5.18-1.367,7.638-.144,9.109,5.022a19.759,19.759,0,0,1,.984,6.643c-.288,3.972,1.618,5.493,5.182,5.757,4.049.3,8.124.42,12.137.976C460.256,123.275,461.571,124.5,463.983,125.833Z" transform="translate(-313.676 -103.762)"/>
</svg>
