<svg xmlns="http://www.w3.org/2000/svg" width="309.974" height="214.956" viewBox="0 0 309.974 214.956">
  <defs>
    <style>
      .cls-1 {
        fill: none;
        stroke: #66e5bf;
      }
    </style>
  </defs>
  <path id="Gelderland" class="cls-1" d="M457.029,513.823c-11.9-5.673-19.144,1.816-26.964,6.591-4.524,2.763-5.171,7.46-2.861,12.848.763,1.78,1.81,3.439,2.713,5.127A8.535,8.535,0,0,1,417.9,540.1c-3.882-3.036-7.525-3.089-12.159-1.8-10.156,2.815-19.757,2.35-26.558-7.5-5.964-8.64-13.9-11.377-24.053-8.151-1.637.521-4.208-.22-5.7-1.284-2.692-1.918-4.885-2.147-7.173.243-1.792,1.874-3.5,2.81-6.332,1.659-1.558-.631-4.385-.416-5.533.63-4.376,3.978-9.74,7.807-12.022,12.9-2.709,6.048-6.879,8.066-12.3,8.793-4.119.553-8.635.877-12.5-.277-3.251-.972-6.464-3.753-8.53-6.581-2.547-3.487-4.8-5.172-9.32-4.1-5.946,1.41-8.116-4.633-13.155-6.964,6.909-4.792,2.592-8.838.149-12.008,3.706-2.654,6.846-4.978,10.068-7.179,1.711-1.169,3.45-2.627,5.381-3.077a9.21,9.21,0,0,0,7.13-6.781c1.583-5.026,3-10.1,4.537-15.324,3.908,2.272,8.812,2.613,13.769-.446a3.215,3.215,0,0,1,3.078.546c4.543,6.1,10.249,4.556,15.939,2.515,2.963-1.063,5.734-2.65,8.62-3.941,6.452-2.887,12.4-2.158,18.37,1.774a64.5,64.5,0,0,0,13.569,6.8c4.4,1.58,7.346-1.476,6.16-6.117a17.568,17.568,0,0,0-3.577-7.167c-6.434-7.213-9.382-15.548-9.578-25.114-.106-5.2-3.374-6.8-7.973-4.207-1.7.961-3.242,2.235-5,3.065-.759.358-2.314.3-2.726-.2a3.193,3.193,0,0,1-.125-2.853,25.669,25.669,0,0,1,2.744-3.564c3.8-5.048,2.1-11.154-3.64-13.63-2.844-1.226-5.557-2.754-8.867-4.415,4.131-3.975,3.174-7.349.31-10.738a13.224,13.224,0,0,1-1.886-3.581c-1.827-4.485-1.312-5.234,3.594-5.883,12.7-1.682,20.862-9.128,26.252-20.343a23.717,23.717,0,0,1,5.492-7.443c5.318-4.662,10.973-8.947,16.586-13.264,10.784-8.292,20.416-17.457,24.567-32.548,2.923,2.789,5.513,4.687,7.366,7.138,5.113,6.767,9.519,7.043,14.647.225,1.657-2.2,3.153-2.745,5.108-1,3.688,3.3,7.372,6.63,10.717,10.261.911.989.77,3.094.816,4.694.09,3.117-.639,6.4,3.332,8.033.551.227.939,2.6.443,3.333-2.424,3.577-4.8,7.327-7.89,10.281-5.526,5.277-5.6,7.347.939,10.953a15.906,15.906,0,0,1,8.647,12.464c.642,5.058,3.263,7.585,8.353,8.437,5.6.94,11.059,2.736,16.627,3.936,5.329,1.149,9.933.248,13.777-4.324,1.51-1.8,4.575-2.887,7.008-3.033,1.035-.062,2.676,2.98,3.337,4.858,3.1,8.792,10.566,13.546,19.769,12.7a26.654,26.654,0,0,1,7.931.939c2.952.646,5.356,2.255,8.966.817,3.1-1.232,4.18,2.7,4.632,5.285,1.215,6.93,2.463,8.293,9.639,9.4,7.274,1.119,8.321,3.29,4.421,9.463-1.2,1.9-2.753,3.579-4.046,5.428-2.879,4.114-2.351,6.439,2.121,8.571a65.064,65.064,0,0,0,7.18,2.683c11.807,4,14.983,13.434,7.976,23.769-5.653,8.337-12.339,10.4-22.167,7.037a4.5,4.5,0,0,0-3.641.453c-11.542,9.053-25.267,12.326-39.193,15.247-2.207.463-4.028,2.572-6.23,3.315-1.811.611-4.184.982-5.86.324-6.859-2.692-13.533-5.849-20.3-8.78a146.613,146.613,0,0,0-13.779-5.619c-1.552-.492-4.487.278-5.324,1.485-.868,1.251-.517,4.019.305,5.6C452.253,509.087,454.326,510.763,457.029,513.823Z" transform="translate(-261.556 -331.608)"/>
</svg>
