<svg xmlns="http://www.w3.org/2000/svg" width="170.204" height="169.038" viewBox="0 0 170.204 169.038">
  <defs>
    <style>
      .cls-1 {
        fill: none;
        stroke: #66e5bf;
      }
    </style>
  </defs>
  <path id="Groningen" class="cls-1" d="M440.011,102.555a56.554,56.554,0,0,1,6.446,1.5c3.1,1.091,5.984,2.924,9.142,3.661,4.4,1.028,8.62-.118,11.132-4.125a10.919,10.919,0,0,1,10.729-5.323c10.333.811,19.911-1.689,29.565-4.947a128.07,128.07,0,0,1,21.039-4.882C540.849,86.428,549.4,94,550.472,107.69c.812,10.41,5.461,16.363,15.567,19.555,4.152,1.311,8.4,2.342,12.65,3.318,6.367,1.462,10.093,5.342,10.578,11.815.211,2.8,1.348,3.869,3.87,4.568,8.563,2.376,12.757,7.561,12.482,16.385-.253,8.092-1.1,16.184-2.054,24.23-.943,7.907-.715,15.559,2.325,23.059a8.565,8.565,0,0,1,.314,5.635c-4.653,12.693-9.566,25.289-14.386,37.921-.832,2.179-2.144,2.377-4.264,1.6-6.066-2.22-9.218-7.446-7.764-13.876.882-3.9-.1-6.333-3.619-8.65-2.738-1.8-4.485-5.1-6.686-7.724-2.783-3.314-5.484-6.7-8.392-9.907-8.894-9.8-18.094-19.334-26.723-29.36-4.37-5.077-8.414-6.9-14.47-4.552-7.686,2.98-9.654,1.384-13.761-5.677-3.37-5.793-9.279-9.879-13.254-15.609-2.079-3-7.644-2.785-10.778.051-4.425,4-8.762,8.427-11.858,13.458-2.231,3.626-2.439,8.518-3.436,12.871-.9,3.93-5.1,5.693-7.432,2.634-3.227-4.236-7.619-5.339-12.231-5.758-4-.363-6.274-2.675-8.323-5.483-1.967-2.7-2.076-5.215.415-8.091a54.421,54.421,0,0,0,6.222-9.806,5.946,5.946,0,0,0,.531-4.342c-1.83-4.948-.238-8.643,2.622-12.851,2.705-3.981,4.182-8.94,5.526-13.659,1.3-4.583-.6-6.838-6.8-9.272-1.948-.765-4.114-.985-6.038-1.793-4.261-1.791-4.848-4.13-1.732-7.357,2.4-2.484,3.56-4.653-.895-7.043Z" transform="translate(-436.903 -87.603)"/>
</svg>
