<svg xmlns="http://www.w3.org/2000/svg" width="111.556" height="272.922" viewBox="0 0 111.556 272.922">
  <defs>
    <style>
      .cls-1 {
        fill: none;
        stroke: #66e5bf;
      }
    </style>
  </defs>
  <path id="Limburg" class="cls-1" d="M406.164,525.212c3.3.733,6.5.912,9.219,2.153,6.046,2.765,12.257,5.514,17.515,9.45,1.736,1.3.75,6.227,1.079,10.391,9.6,1.78,11.516,10.715,13.781,19.178,2.509,9.371,5.818,18.062,14.635,23.5.951.587,1.532,2.176,1.8,3.4,4.681,21.409-.087,40.856-12.522,58.6-3.106,4.432-6.568,8.62-9.936,12.864-3.986,5.021-4.967,10.51-2.488,14.549,2.371,3.865,8.262,5.649,14.207,4.267a9.453,9.453,0,0,1,4.26-.359c-1.929,2.466-3.53,5.312-5.857,7.319-4.322,3.728-9.146,6.866-13.613,10.434-6.431,5.134-12.731,10.43-19.736,16.193.96.164.66.161.4.06-2.514-.963-6.16-3.446-7.29-2.595a10.7,10.7,0,0,0-3.843,7.848,38.528,38.528,0,0,0,3.3,13.768c1.885,4.193,5.6,4.484,9.478,1.862,4.583-3.1,8.19-1.989,10.081,3.137a27.7,27.7,0,0,1,1.012,3.464c1.486,6.56,4.462,11.577,12.7,11.482-1.128,4.935-2.052,9.435-3.236,13.864a7.151,7.151,0,0,1-2.218,3.33c-4.466,3.815-8.943,7.632-13.633,11.162-4.159,3.131-4.177,4.773.518,7.347,1.647.9,3.357,1.694,5.037,2.536q-.028.734-.056,1.471c-1.709.384-3.454,1.212-5.121,1.076-7.937-.647-15.872-1.4-23.768-2.435-4.138-.542-8.674.47-12.222-3.251-.8-.844-3.712-.055-5.5.486-2.975.9-5.824,2.211-8.747,3.357-.417-.789-.892-1.328-.778-1.526,3.151-5.461,1.164-9.326-3.021-13.487s-4.614-9.755-1.77-15.075c2.622-4.9,5.729-9.541,8.452-14.391,2.275-4.053,4.76-8.083,6.287-12.428a18.1,18.1,0,0,0,.594-9.585,15.755,15.755,0,0,1,2.785-13.6c1.682-2.314,3.508-4.524,5.236-6.8,2.617-3.457,4.061-6.977,1.292-11.173-.546-.828-.268-2.558.192-3.63,1.855-4.317,1.318-6.914-3.084-8.626-5.019-1.952-10.383-3-15.526-4.659a175.317,175.317,0,0,1-19.876-7.594c6.464-2.551,6.453-6.763,5.833-12.062-.671-5.734,6.562-12.536,14.552-14.819,7.653-2.187,15.566-3.648,22.976-6.452,5.665-2.144,10.78-5.8,15.985-9.025.693-.43.867-2.421.585-3.509a9.741,9.741,0,0,0-2.223-3.866,30.415,30.415,0,0,1-7.76-18.8,9.407,9.407,0,0,0-.973-4.347c-4.374-6.642-3.375-14.1-3.835-22.244a38.623,38.623,0,0,1,5.445,2.778c3.311,2.455,6.492,2.376,9.414-.33s5.844-3.078,9.363-1.19a22.68,22.68,0,0,0,5.979,1.954c4.056.861,5.631-.809,4.873-4.845a33.04,33.04,0,0,0-10.045-17.818,17.48,17.48,0,0,1-5.728-14.522c.267-4.3-1.438-7.007-5.582-8.673C410.614,533,407.065,530.04,406.164,525.212Z" transform="translate(-354.905 -524.56)"/>
</svg>
