<svg xmlns="http://www.w3.org/2000/svg" width="319.148" height="164.123" viewBox="0 0 319.148 164.123">
  <defs>
    <style>
      .cls-1 {
        fill: none;
        stroke: #66e5bf;
      }
    </style>
  </defs>
  <path id="Noord-Brabant" class="cls-1" d="M175.765,545.825c12.937,6.327,25.45,2.08,36.2-5.862,8.211-6.067,18.119-10.693,23.24-20.539,1.263-2.426,3.577-3.654,6.89-2.818,4.733,1.193,8.521-1.373,11.68-4.543,2.207-2.212,4.408-2.359,7.347-1.917,7,1.05,12.659,4.365,17.578,9.186a9.291,9.291,0,0,0,9.478,2.609,5.362,5.362,0,0,1,4.578,1.511c2.7,3.624,4.7,8.365,9.7,8.756a97.587,97.587,0,0,0,19.554-.322c5.14-.639,8.069-4.143,10.318-9.384,1.97-4.594,6.99-7.893,10.72-11.708a1.986,1.986,0,0,1,1.7-.457c4.456,1.652,8.356,1.293,11.682-2.526.3-.345,2.016.665,3.108.858,2.662.468,5.559,1.682,7.976,1.07,8.375-2.121,15.27-.695,20.22,6.748,7.495,11.27,18.183,12.053,29.993,9.331,1.278-.294,2.532-.689,4.4-1.2.945,8.029,6.41,11.763,12.685,14.935a5.138,5.138,0,0,1,2.207,3.9,25.065,25.065,0,0,0,8.369,19.587,24.174,24.174,0,0,1,7.805,17.328c-3.334-1.074-6.345-1.59-8.885-2.971-3.514-1.911-6.39-1.361-9.053,1.154-2.852,2.692-5.59,3.1-8.712.457a10.634,10.634,0,0,0-3.608-1.829c-3.6-1.154-5.018-.079-4.936,3.8a80.794,80.794,0,0,0,3.578,21.083c2.811,9.694,4.516,19.5,13.02,27.725-6.226,3.36-11.206,6.822-16.716,8.829-7.314,2.665-15.159,3.846-22.562,6.309-7.739,2.576-14.773,6.443-16.417,15.579-.308,1.712.606,3.743.029,5.28-.687,1.829-2.374,3.284-3.627,4.9-1.209-1.083-2.85-1.952-3.527-3.3-1.053-2.1-1.06-4.744-2.2-6.772-3.5-6.231-9.715-8.578-17.082-6.433-5.051,1.471-9.876,3.745-14.953,5.081a36.032,36.032,0,0,1-11.957,1.469c-5.666-.487-10.477-2.422-12.175-9.274-2.208-8.911-4.384-9.615-13.311-7.38-1.339.335-3.965-.465-4.461-1.484-1.869-3.838-3.71-7.879-4.436-12.039-1.132-6.484-1.156-13.153-2.02-19.694-.508-3.843-3.092-6.373-6.722-7.852-5.851-2.383-7.027-1.84-8.852,4.1-1.819,5.926-4.82,11.335-10.32,14.288-2.5,1.342-6.255,1.041-9.283.538-4.169-.693-8.163-2.379-12.281-3.447a57.8,57.8,0,0,0-6.511-.915,14.592,14.592,0,0,1,1.413-1.052c8.46-4.528,9.263-7.1,4.777-15.354-2.87-5.282-6.327-6.282-10.934-2.472-4.982,4.121-9.3,9.046-14.339,13.092a36.178,36.178,0,0,1-10.886,6.028c-2.242.756-5.26-.27-7.748-1.062-.811-.258-1.509-2.323-1.476-3.54.237-8.827-3.566-12.21-12.241-10.542a78.626,78.626,0,0,0-7.876,1.952c-6.86,2.072-8.087,4.144-7.183,11.146.616,4.767,1.215,9.551,1.446,14.345.221,4.592-1.7,5.791-5.847,3.762-5.514-2.7-10.907-5.637-15.306-7.928-.825-5.037-1.575-9.555-2.293-14.079-.089-.563-.239-1.319.035-1.709,4.539-6.481-.068-10.759-3.51-15.445-1.137-1.546-2.41-3.642-2.256-5.364a21.485,21.485,0,0,0-4.532-15.2c-2.561-3.458-1.709-6.109.274-9.766,3.8-7.016,9.371-7.066,16.14-6.794a32.371,32.371,0,0,0,14.639-2.889C170.821,553.141,172.92,549.036,175.765,545.825Z" transform="translate(-134.577 -507.29)"/>
</svg>
