<svg xmlns="http://www.w3.org/2000/svg" width="129.665" height="214.449" viewBox="0 0 129.665 214.449">
  <defs>
    <style>
      .cls-1 {
        fill: none;
        stroke: #66e5bf;
      }
    </style>
  </defs>
  <path id="Noord-Holland" class="cls-1" d="M262.573,310.448c1.558,5.5,2.6,10.288,4.289,14.836,1.938,5.208,4.523,10.172,6.7,15.294a19.483,19.483,0,0,1-.208,16.6,5.907,5.907,0,0,0,.716,4.944c2.183,3.068,1.888,5.685-.675,8.021-2.889,2.633-6.26,4.761-9,7.529-1.98,2-3.268,4.687-4.865,7.066,2.318,1.482,4.476,3.4,7,4.328a21.271,21.271,0,0,0,8.809,1.517c6.059-.5,11.249,1.24,16.237,4.371,5.283,3.315,10.806,5.87,17.332,5.591,3.127-.134,4.526,3.13,3.077,6-2.421,4.8-4.068,10.1-7.089,14.47-2.808,4.06-6.852,7.331-10.664,10.585-.826.7-3.069.079-4.466-.445-.341-.128-.175-2.361.193-3.486,1.543-4.719-1.981-8.308-8.407-8.642a27.6,27.6,0,0,1-4.849-1.12,44.143,44.143,0,0,1,1.608-5.707c.57-1.352,2.3-2.41,2.423-3.7.147-1.533-.391-3.782-1.484-4.654-2.6-2.076-5.879-3.295-8.575-5.278-4.119-3.03-5.784-2.753-7.782,1.912-1.95,4.552-10.56,9.587-15.563,9.424-1.632-.054-4.175.3-4.793,1.352-2.844,4.85-7.42,6.7-12.3,8.448-2.349.839-4.476,2.3-7.617,3.956a89.025,89.025,0,0,0,.62-9.446c-.054-1.434-1.127-2.831-1.739-4.245-1.219.706-2.676,1.188-3.605,2.168a36.505,36.505,0,0,0-3.733,5.091c-3.99,6.038-9.262,8.223-15.994,6.189-3.658-1.105-4.127-4.286-3.249-7.369.73-2.559,2.225-4.908,3.454-7.314,1.966-3.853,3.158-7.715,1.723-12.127-.909-2.793-2.254-4.1-5.267-3.293a15.09,15.09,0,0,1-3.574.421c-7.71.162-8.571-1.529-6.3-8.716,2.747-8.705,4.722-17.656,6.947-26.522,2.811-11.211,5.811-22.386,8.18-33.691a87.064,87.064,0,0,0,1.481-16.986c.141-15.818,4.666-30.828,7.814-46.117,2.477-12.036,4.227-24.23,5.984-36.4.618-4.282,3.611-6.114,6.819-6.771,1.749-.359,4.819,1.556,5.979,3.311,2.973,4.5,5.052,9.573,7.789,14.241,2.529,4.314,5.89,7.637,11.528,7.317,3.176-.18,4.888-1.281,5.032-4.873.414-10.378,6.153-13.771,15.766-9.589a22.194,22.194,0,0,1,12.793,26.972c-3.956,13.587,1.656,21.616,15.884,22.754,3,.24,6.006.9,8.978.745,4.436-.225,5.014,2.028,4.579,5.615-1.189,9.771-6.748,16.072-15.435,20.129-8.825,4.12-18.272,4.741-27.752,5.291C266.3,310.5,265.263,310.448,262.573,310.448Z" transform="translate(-183.429 -217.98)"/>
</svg>
