<svg xmlns="http://www.w3.org/2000/svg" width="214.961" height="197.465" viewBox="0 0 214.961 197.465">
  <defs>
    <style>
      .cls-1 {
        fill: none;
        stroke: #66e5bf;
      }
    </style>
  </defs>
  <path id="Overijssel" class="cls-1" d="M595.082,384.031c-1.1,5.584-2.218,10.39-2.914,15.257a7.847,7.847,0,0,0,1.027,5.107c2.914,4.27,2.826,6.239-1.418,9.485-5.36,4.1-11.061,7.8-16.124,12.226a105.32,105.32,0,0,0-12.015,12.758c-6.317,7.736-9.827,8.843-18.927,5.093a9.121,9.121,0,0,0-2.6-.733c-5.908-.529-9.843-2.456-10.539-9.493-.523-5.286-3.347-6.225-8.8-5.265-1.216.214-2.563-.3-3.847-.491-3.83-.569-7.664-1.654-11.487-1.609-8.064.1-13.969-3.734-16.6-11.546-2.494-7.409-8.649-9.039-13.792-3.058-4.13,4.8-8.687,5.29-14.175,3.9-5.1-1.288-10.195-2.6-15.344-3.653-3.416-.695-5.185-2.358-5.665-5.93A18.346,18.346,0,0,0,431.4,391.26c-4.049-2.022-3.831-2.745-.7-6.206a135.951,135.951,0,0,0,9.173-11.557c1.882-2.6,1.38-4.857-1.439-6.911a5.93,5.93,0,0,1-1.967-4.593c.357-3.728-.238-6.807-3.187-9.336-3.522-3.019-6.736-6.43-10.454-9.172-2.509-1.85-5.044-1.771-7.064,1.683-3.082,5.271-8.16,6.346-11.268-.081a5.206,5.206,0,0,0-1.955-2.434c-10.505-5.039-7.728-16.974-12.893-24.824-1.78-2.706.139-5.025,3.624-5.552,5.763-.871,11.521-1.814,17.229-2.98,1.852-.379,4.094-1.114,5.166-2.469,1.328-1.675,2.571-4.412,2.094-6.232-.462-1.768-2.943-3.765-4.889-4.248-5.334-1.324-5.995-2.121-3.321-6.553,1.332-2.208,1.573-4.124-.791-5.89a10.323,10.323,0,0,1-3.09-3.246c-4.6-8.953-13.065-13.437-21.013-18.575-1.234-.8-2.057-2.232-3.07-3.371a36.887,36.887,0,0,1,4.317-1.607,4.359,4.359,0,0,1,2.652.262c6.318,2.864,11.625,1.422,16.428-3.354,2.417-2.4,5.277-2.1,7.708.1,2.244,2.034,4.405,2,7,.769,3.254-1.55,6.826-2.5,9.919-4.3,3.65-2.12,6.1-1.129,8.5,1.808a48.419,48.419,0,0,0,6.352,7.006c2.826,2.322,2.346,4.13.042,6.214a9.285,9.285,0,0,1-2.039,1.765c-7.187,3.292-7.437,9.07-5.674,15.571,1.6,5.906,5.2,9.57,11.454,10.656,7.65,1.331,15.52,1.873,22.4,6.208,2.489,1.57,4.857,2.727,5.177,6.206.125,1.357,1.558,3.391,2.77,3.714a127.465,127.465,0,0,0,15.761,3.187c3.9.523,6.025-1.542,6.529-5.659,1.4-11.418,10.326-15.8,20.364-10.158,1.969,1.107,3.9,2.286,5.888,3.358,2.718,1.466,4.981,2.917,4.808,6.753-.084,1.859,1.551,3.821,2.492,5.694,1.485,2.955,3.212,5.8,4.521,8.826,1.53,3.536-.173,5.382-3.713,5.97-5.214.864-5.8,1.766-5.036,7.037a20.972,20.972,0,0,0,10.7,15.9,45.105,45.105,0,0,0,33.51,4.959c9.649-2.206,13.316-.819,16.449,8.731C592.987,370.819,593.781,377.738,595.082,384.031Z" transform="translate(-380.734 -249.029)"/>
</svg>
