<svg xmlns="http://www.w3.org/2000/svg" width="141.37" height="99.867" viewBox="0 0 141.37 99.867">
  <defs>
    <style>
      .cls-1 {
        fill: none;
        stroke: #66e5bf;
      }
    </style>
  </defs>
  <path id="Utrecht" class="cls-1" d="M242.346,464.067l-7.456-1.851c-.662-3.611,2.013-4.434,4.6-5.205,3.133-.935,4.886-3.35,2.447-5.569-5.455-4.962-5.508-12.539-10.176-18.459,3.129-.725,6.015-1.242,8.806-2.077,5.1-1.527,6.028-5.781,2.242-9.551-4.515-4.5-8.972-9.05-12.878-13,3.806-3.58,6.74-6.4,9.749-9.128.733-.665,1.723-1.526,2.576-1.506,9.458.22,16.049-4.025,20.3-12.845l12.272,8.077c-.963,1.387-2.459,2.817-3.036,4.551-.763,2.291-1.691,5.193-.872,7.124.619,1.458,3.821,2.382,5.949,2.537,6.042.443,7.434,1.919,6.06,7.511-.962,3.912,2.7,7.009,7.281,5.231A22.412,22.412,0,0,0,303.8,406.428c1.785-4.858,4.22-9.477,6.282-14.023,6.281,3.2,11.717,5.957,17.12,8.772a2.649,2.649,0,0,1,1.061,1.375c1.734,4.713,3.414,9.446,5.309,14.723-3.206,5.415-2.866,6.468,3.957,9.663,1.36.636,2.817,1.063,4.189,1.675a6.122,6.122,0,0,1,2.5,9.626c-1.067,1.449-2.9,2.675-3.229,4.242a8.464,8.464,0,0,0,.916,6.035c.633.9,3.433.49,5.211.277.938-.112,1.785-1.051,2.656-1.64,5.822-3.939,7.292-3.623,7.316,3.392.033,9.416,3.918,16.7,9.593,23.643,2.064,2.526,5.366,6.022,2.332,8.994-1.267,1.242-6-.56-8.912-1.629-2.341-.858-4.4-2.595-6.445-4.122-6.736-5.02-13.818-5.231-21.266-1.817-3.271,1.5-6.537,3.043-9.918,4.258-4.436,1.595-8.438,1.451-11.588-3-.723-1.022-3.745-1.676-4.778-1.026-8.543,5.381-12.838.835-19-4.589-5.095-4.482-7.789-5.673-12.719-1.118-4.539,4.195-9.606,5.457-15.428,6.254-3.261.446-6.617,2.607-9.215,4.828-2.775,2.374-4.451,2.741-6.278-.61a23.482,23.482,0,0,0-1.549-2.222C236.924,471.322,236.924,471.322,242.346,464.067Z" transform="translate(-229.218 -384.148)"/>
</svg>
