<svg xmlns="http://www.w3.org/2000/svg" width="178.22" height="180.59" viewBox="0 0 178.22 180.59">
  <defs>
    <style>
      .cls-1 {
        fill: none;
        stroke: #66e5bf;
      }
    </style>
  </defs>
  <g id="Zeeland" transform="translate(0.5 0.585)">
    <path id="Path_46" data-name="Path 46" class="cls-1" d="M0,618.226c6.2-2.256,12.487-4.316,18.59-6.816,8.278-3.39,15.716-3.613,22.157,3.814a9.963,9.963,0,0,0,5.576,2.688A32.678,32.678,0,0,1,65.334,628.3c4.311,4.609,4.586,4.342,8.874-.083,1.737-1.793,3.358-2.18,5.339-.08,3.644,3.864,7.117,3.715,10.907.554a25.316,25.316,0,0,1,8.269-4.765c3.1-.986,4.708-2.233,4.384-5.611-.383-4,1.827-6.341,5.518-7.03,3.577-.669,5.162,1.913,6.058,4.806,1.312,4.244,4.492,6.179,8.424,7.362,2.706.814,5.393,1.693,7.169,2.254,2.179-.668,3.732-1.028,5.188-1.628,1.077-.444,2.5-.965,2.945-1.861,1.608-3.223,3.654-3.156,6.172-1.3,1.448,1.068,3.2,1.97,4.148,3.392.749,1.126,1.2,3.521.538,4.338-4.525,5.564-9.241,10.991-14.178,16.195-3.411,3.593-7.271,6.762-10.937,10.114-2.51,2.295-4.987,4.08-8.89,3-1.3-.358-3.657,1.12-4.76,2.415a13.7,13.7,0,0,1-11.42,5.2c-2.44-.033-4.9,1.475-7.111,3.073-.281-.055-.732-.02-.821-.181-2.352-4.289-4.817-5.134-9.681-2.52-4.9,2.631-10.344-1.667-10.782-7.332-.14-1.8.32-3.734-.2-5.387-.459-1.462-1.671-3.419-2.94-3.776-5.844-1.646-11.225-5.233-17.84-4.083-1.4.242-3.282-1.73-4.8-2.874-3.954-2.981-3.994-3.016-7.023.838-5.558-1.687-7.716-.232-8.189,5.518-.527,6.4-2.711,8.363-8.93,7.383C12.731,654.981,4.663,653.2,1.711,644.21c-1.016-3.1-1.4-7.106-.3-10.031,1.766-4.693.923-8.439-1.407-12.337Z" transform="translate(0 -489.189)"/>
    <path id="Path_49" data-name="Path 49" class="cls-1" d="M155.964,552.629c-4.269.756-7.886.207-10.95-3.422-1.406-1.665-4.194-2.173-6.364-3.187-2.034-.952-4.353-1.533-6.066-2.885-4.14-3.267-8.579-5.426-13.933-5.482-5.41-.056-7.532-3.591-8.634-8.2-.9-3.789-1.685-7.618-2.812-11.342-1.623-5.366-3.906-6.752-9.459-5.26-4.472,1.2-8.709,3.259-13.157,4.575-1.614.478-4.415.579-5.122-.341-1.137-1.477-1.941-4.467-1.168-5.881a16.877,16.877,0,0,1,6.285-6.478,60.632,60.632,0,0,1,14.129-5.772,13.157,13.157,0,0,1,8.888,1.226c6.119,3.479,11.723,7.853,17.637,11.71,4.007,2.613,8.289,4.809,12.253,7.479a49.052,49.052,0,0,1,6.622,5.736c1.7,1.661,2.894,3.947,4.784,5.293,6.1,4.346,12.389,8.427,18.66,12.526,3.852,2.515,4.132,5.231-.06,7.376-3.449,1.764-7.521,2.312-11.316,3.4Z" transform="translate(6.676 -498.647)"/>
    <path id="Path_50" data-name="Path 50" class="cls-1" d="M75.725,539.766c-2.382,1.954-5.022,4.374-7.917,6.435-4.222,3.007-12.151,2.374-15.921-1.026-3.149-2.839-2.716-9.685,1.107-12.444,7.6-5.484,15.552-9.383,25.558-7,6.25,1.492,12.8,1.712,19.205,2.579,5.14.7,9.24,3.071,10.778,8.259,1.444,4.872,5.1,5.808,9.333,6.174,6.914.6,9.273,5.141,5.032,10.689-4.683,6.126-11.543,8.981-19,10.271-.963.166-2.148-.809-3.2-1.321-2.228-1.087-4.329-2.621-6.676-3.232-3.379-.88-4.094-3.348-4.353-6.062C89.253,548.71,78.531,542.108,75.725,539.766Z" transform="translate(4.262 -496.39)"/>
    <path id="Path_71" data-name="Path 71" class="cls-1" d="M101.068,600.263c-1.608,1.819-3.23,3.567-4.752,5.4-2.308,2.778-4.408,5.742-6.841,8.4-6.809,7.442-10.824,7.507-18.38.964-1.711-1.482-4.234-1.983-6.155-3.274-2.929-1.968-6.027-3.889-8.4-6.435-6.13-6.581-7.01-6.85-14.829-2.589a4.879,4.879,0,0,1-3.737.431C28.7,598.983,20.793,593.1,16.095,583.8c-3.21-6.35-1.281-10.763,5.7-12.685,4.492-1.236,8.718-2.372,12.506-5.493,3.051-2.514,7.017-1.966,9.712,1.294,3.444,4.169,6.524,8.635,9.822,12.927,6,7.812,9.882,7.965,16.85,1.141,5.548-5.434,12.838-5.24,19.067-2.966,7.048,2.574,13.536,6.994,19.808,11.284,6.071,4.152,11.377,9.4,17.346,13.724,6.987,5.058,14.7,7.462,23.431,4.624,1.061-.345,3.536.393,3.661.986a38.6,38.6,0,0,1,.847,9.432c-.024.6-2.655,1.734-3.926,1.547-7.582-1.109-15.119-2.527-22.668-3.857a40.341,40.341,0,0,1-24.36-13.557,10.713,10.713,0,0,0-1.3-1.247A9.7,9.7,0,0,0,101.068,600.263Z" transform="translate(1.249 -493.049)"/>
    <path id="Path_73" data-name="Path 73" class="cls-1" d="M131.007,561.715c-2.937-1.841-5.874-3.681-9.294-5.823,6.226-4.586,12.762-2.791,20.019-3.1-2.058,2.845-3.542,5.163-5.293,7.258-2.9,3.472-3.054,6.721-.532,10.627,3.035,4.7,6.722,9.48,3.736,16.173-8.555-2.19-17.289-4.163-25.85-6.716-4.925-1.468-8.367-5.122-10.707-9.776-1.688-3.357-.744-6.043,2.7-6.509,5.288-.715,10.7-.545,16.068-.6,2.872-.031,5.748.243,8.622.381Q130.739,562.669,131.007,561.715Z" transform="translate(8.754 -494.021)"/>
    <path id="Path_81" data-name="Path 81" class="cls-1" d="M56.242,575.34,44.626,562.929c2.878-3.6,6.255-4.087,9.942-3.033a45.356,45.356,0,0,0,20.884.736c3.13-.552,7.031,2.291,10.288,4.115.825.463,1.238,3.464.572,4.367-1.109,1.506-3.156,2.465-4.985,3.232-.762.32-2.037-.318-2.982-.737C70.378,568.08,62.885,567.825,56.242,575.34Z" transform="translate(3.82 -493.446)"/>
  </g>
</svg>
