<svg xmlns="http://www.w3.org/2000/svg" width="198.804" height="168.366" viewBox="0 0 198.804 168.366">
  <defs>
    <style>
      .cls-1 {
        fill: none;
        stroke: #66e5bf;
      }
    </style>
  </defs>
  <path id="Zuid-Holland" class="cls-1" d="M187.513,380.927c5.554.239,10.23.368,14.89.709.81.06,2.142.939,2.223,1.569a20.069,20.069,0,0,1,0,6.546c-.389,1.85-1.6,3.542-2.529,5.262-2.59,4.806-4.874,9.965-.74,14.69,3.919,4.479,9.6,2.432,14.508,1.847,1.857-.221,3.762-2.307,5.115-3.972,2.259-2.78,4.093-5.906,7.1-8.662a51.816,51.816,0,0,0-.669,7.205,10.271,10.271,0,0,0,1.569,5.262c.319.461,3.146-.183,4.3-1.035,3.506-2.587,5.632-1.648,8.082,1.672,2.654,3.6,6.138,6.57,9.14,9.922a35.647,35.647,0,0,1,2.853,4.231c-1.619.849-3.231,1.708-4.859,2.536a3.6,3.6,0,0,1-.883.185c-8.46,1.778-7.643,1.779-4.588,9.424,2.14,5.354,3.912,10.581,9.383,14.953-5.728,1.661-9.622,3.782-9.256,9.038.091,1.3,1.986,2.484,3.118,3.8.23,2.08-.066,4.963.949,7.271,1.556,3.539,3.921,6.744,6.115,9.974,2.351,3.463,5.21,4,7.676.713,3.558-4.747,8.584-4.86,13.531-6.037a37.887,37.887,0,0,0,10.047-4.276c2.9-1.689,5.11-5.16,9.1-3.071,3.794,1.983,7.425,10.021,6.268,13.606a65.885,65.885,0,0,1-3.467,9.281,12.106,12.106,0,0,1-3.952,3.973c-3.007,2.132-6.171,4.046-9.31,5.985-1.875,1.157-3.708,2.634-5.77,3.187-4.231,1.138-4.617,2.05-2.828,6.257.811,1.905,4.847,3.6,1.81,5.857-1.709,1.269-4.967.7-7.5.543a24.853,24.853,0,0,1-6.137-1.406c-3.409-1.133-6.033-.36-8.493,2.307-3.006,3.26-6.71,4.542-11.4,4.093-2.245-.215-5.778,1.092-6.883,2.859-6.436,10.305-15.235,16.065-27.487,17.078-4.4.363-8.582,2.878-12.995,3.543a35.492,35.492,0,0,1-25.45-5.691c-9.162-6.07-17.825-12.919-27.172-18.672-6.972-4.291-14.854-7.084-21.989-11.145-3.083-1.754-5.341-4.986-7.9-7.617-2.582-2.649-5.007-5.283-2.736-9.541.251-.469-2.174-3.072-3.746-3.672-5.14-1.959-4.956-1.666-2.678-6.774a20.807,20.807,0,0,0,1.385-8.141c.027-3.75.844-4.641,4.487-3.474,3.579,1.146,7.076,2.564,10.684,3.6,3.276.944,5.338.113,4.818-3.952a15.922,15.922,0,0,1,4.35-13.226c9.634-10.764,19.863-21.122,28.384-32.721,10.128-13.786,18.727-28.692,27.969-43.124C186.745,382.459,187.4,381.13,187.513,380.927Z" transform="translate(-101.903 -380.414)"/>
</svg>
