<svg xmlns="http://www.w3.org/2000/svg" width="406.274" height="487.834" viewBox="0 0 406.274 487.834">
  <g id="Nederland" transform="translate(0.5 0.5)">
    <g id="Wadden_eilanden" data-name="Wadden eilanden" transform="translate(144.106)">
      <path id="Path_47" data-name="Path 47" d="M496.115,62.9c-.083,1.18.064,3.293-.287,3.379A20.678,20.678,0,0,1,491,66.44q-.081-.482-.163-.963l2.433-2.577Z" transform="translate(-299.638 -62.899)" fill="none" stroke="#66e5bf" stroke-width="1"/>
      <path id="Path_51" data-name="Path 51" d="M319.046,90.418c.392,3.916-2.274,4.881-4.173,6.047-1.668,1.025-3.119,1.822-3.741,3.872-.174.572-1.855,1.167-2.668.982-2.995-.686-5.386-.767-7.941,1.776-1.512,1.506-4.578,1.4-6.893,2.169-3.029,1.007-6.051,2.063-8.98,3.323-.835.359-1.428,1.437-1.965,2.291-.818,1.3-1.746,2.493-3.383,1.582-1.586-.883-2.675-2.39-1.759-4.253a10.962,10.962,0,0,1,2.787-3.459c5.91-4.914,12.9-7.217,20.385-8.534,3.856-.678,7.581-2.13,11.34-3.312C314.272,92.205,316.439,91.35,319.046,90.418Z" transform="translate(-231.946 -71.619)" fill="none" stroke="#66e5bf" stroke-width="1"/>
      <path id="Path_52" data-name="Path 52" d="M389.207,86.808c-1.976.54-3.927,1.223-5.935,1.59-3.78.691-7.59,1.217-11.393,1.773-1.393.2-2.961.767-4.174.357-3.9-1.318-6.843.2-9.615,2.591-2.22,1.909-4.794,2.835-7.223,1.027a8.061,8.061,0,0,1-2.8-4.816c-.176-1.105,1.291-2.621,2.309-3.677a2.5,2.5,0,0,1,2.329.489c1.6,2.546,3.907,2.436,6.275,1.883a29.576,29.576,0,0,0,4.483-1.711c.7-.29,1.333-.958,2.021-.994,6.735-.351,13.348-3.065,20.194-1.129a32.742,32.742,0,0,1,3.476,1.411Z" transform="translate(-254.396 -69.427)" fill="none" stroke="#66e5bf" stroke-width="1"/>
      <path id="Path_53" data-name="Path 53" d="M233.8,171.958c-.477,5.605-3.185,9.916-6.354,13.971a85.266,85.266,0,0,1-5.86,6.545,6.858,6.858,0,0,1-8.085,1.176c-2.588-1.433-3.008-3.839-2.147-6.369a62.447,62.447,0,0,1,4.054-10.193c3.1-5.614,6.595-11.02,10.1-16.4.664-1.018,2.148-1.5,3.253-2.232.56,1.151,1.139,2.293,1.673,3.455a21.458,21.458,0,0,1,.935,2.326C232.2,166.8,232.995,169.384,233.8,171.958Z" transform="translate(-210.951 -93.179)" fill="none" stroke="#66e5bf" stroke-width="1"/>
      <path id="Path_55" data-name="Path 55" d="M240.3,147.1c-.542-.281-1.838-.572-2.391-1.376-.354-.513.219-1.875.672-2.695a17.845,17.845,0,0,1,9.088-7.761c1.758-.756,3.167-2.322,4.735-3.519a32.809,32.809,0,0,1,4.544-3.343c.773-.4,2.038.15,3.08.269a8.517,8.517,0,0,1-.417,2.519c-1.37,2.7-3.879,3.813-6.709,4.155-1.549.187-1.992.807-2.1,2.331C250.541,141.112,244.058,147.111,240.3,147.1Z" transform="translate(-219.457 -83.611)" fill="none" stroke="#66e5bf" stroke-width="1"/>
      <path id="Path_56" data-name="Path 56" d="M448.542,76.446c-3.021,1.466-5.544,2.764-8.131,3.92a27.788,27.788,0,0,1-5.54,2.047c-2.5.519-4.868.68-6.7,3.029-1.448,1.861-3.81.941-4.354-1.357-.989-4.18.949-7.043,5.187-7.212,5.4-.215,10.683-.37,15.617-3.218C447.1,72.228,448.389,73.576,448.542,76.446Z" transform="translate(-278.323 -66.125)" fill="none" stroke="#66e5bf" stroke-width="1"/>
      <path id="Path_57" data-name="Path 57" d="M481.4,65.873c.11,3.233-1.8,3.417-3.568,3.689-2.04.313-3.427-.493-4.37-3.22Z" transform="translate(-294.135 -63.841)" fill="none" stroke="#66e5bf" stroke-width="1"/>
    </g>
    <path id="Gelderland" d="M384.932,446.618c-7.486-3.57-12.047,1.143-16.967,4.147-2.847,1.739-3.254,4.694-1.8,8.085.48,1.12,1.139,2.164,1.707,3.226a5.371,5.371,0,0,1-7.564,1.079c-2.443-1.911-4.735-1.944-7.651-1.135-6.391,1.771-12.432,1.479-16.712-4.721-3.753-5.437-8.748-7.159-15.136-5.129a4.72,4.72,0,0,1-3.586-.808c-1.694-1.207-3.074-1.351-4.513.153-1.128,1.179-2.2,1.768-3.985,1.044a4,4,0,0,0-3.482.4c-2.754,2.5-6.129,4.912-7.565,8.12-1.7,3.806-4.329,5.076-7.742,5.533a19.359,19.359,0,0,1-7.867-.174,11.353,11.353,0,0,1-5.367-4.141c-1.6-2.194-3.022-3.254-5.865-2.581-3.741.887-5.107-2.916-8.278-4.382,4.347-3.015,1.631-5.561.094-7.556,2.332-1.67,4.308-3.132,6.335-4.518a11.059,11.059,0,0,1,3.386-1.936,5.8,5.8,0,0,0,4.487-4.267c1-3.163,1.888-6.359,2.855-9.643a8.115,8.115,0,0,0,8.664-.281,2.023,2.023,0,0,1,1.937.344c2.859,3.84,6.449,2.867,10.03,1.583,1.864-.669,3.608-1.668,5.424-2.48,4.06-1.816,7.8-1.358,11.56,1.116a40.582,40.582,0,0,0,8.538,4.28c2.771.994,4.623-.929,3.876-3.849a11.055,11.055,0,0,0-2.251-4.51,23.516,23.516,0,0,1-6.027-15.8c-.067-3.275-2.123-4.28-5.017-2.647-1.071.6-2.04,1.407-3.145,1.928a1.865,1.865,0,0,1-1.715-.126,2.009,2.009,0,0,1-.079-1.8,16.154,16.154,0,0,1,1.727-2.243,5.39,5.39,0,0,0-2.291-8.577c-1.79-.771-3.5-1.733-5.58-2.778,2.6-2.5,2-4.625.2-6.757a8.321,8.321,0,0,1-1.187-2.254c-1.15-2.822-.826-3.293,2.262-3.7,7.992-1.058,13.128-5.744,16.519-12.8a14.924,14.924,0,0,1,3.456-4.684c3.347-2.933,6.905-5.63,10.437-8.346,6.786-5.218,12.847-10.985,15.459-20.482a43.747,43.747,0,0,1,4.635,4.492c3.218,4.258,5.99,4.432,9.217.141,1.042-1.386,1.984-1.728,3.214-.628,2.321,2.075,4.639,4.172,6.744,6.457.573.622.484,1.947.514,2.954.057,1.961-.4,4.03,2.1,5.055.347.143.591,1.637.279,2.1a38.789,38.789,0,0,1-4.965,6.469c-3.477,3.321-3.524,4.623.591,6.892a10.009,10.009,0,0,1,5.441,7.843c.4,3.183,2.053,4.773,5.256,5.309,3.526.592,6.959,1.721,10.463,2.477,3.353.723,6.251.156,8.67-2.721a6.722,6.722,0,0,1,4.41-1.909c.651-.039,1.684,1.875,2.1,3.057a11.5,11.5,0,0,0,12.44,7.992,16.772,16.772,0,0,1,4.991.591c1.857.406,3.371,1.419,5.642.514,1.949-.775,2.63,1.7,2.915,3.325.764,4.361,1.55,5.218,6.065,5.913,4.577.7,5.236,2.071,2.782,5.955-.756,1.2-1.732,2.252-2.546,3.416-1.812,2.589-1.48,4.052,1.335,5.393a40.945,40.945,0,0,0,4.518,1.688c7.43,2.515,9.429,8.454,5.019,14.957-3.557,5.246-7.764,6.543-13.949,4.428a2.832,2.832,0,0,0-2.291.285c-7.263,5.7-15.9,7.756-24.663,9.595-1.389.291-2.534,1.618-3.92,2.086a5.875,5.875,0,0,1-3.688.2c-4.316-1.694-8.516-3.681-12.774-5.525a92.255,92.255,0,0,0-8.671-3.536,3.716,3.716,0,0,0-3.35.934c-.547.787-.325,2.529.192,3.526C381.927,443.638,383.231,444.692,384.932,446.618Z" transform="translate(-83.198 -148.343)" fill="none" stroke="#66e5bf" stroke-width="1"/>
    <path id="Noord-Brabant" d="M160.605,531.7c8.141,3.981,16.015,1.309,22.78-3.689,5.167-3.818,11.4-6.729,14.624-12.925a3.5,3.5,0,0,1,4.336-1.773c2.978.751,5.362-.864,7.35-2.859,1.389-1.392,2.773-1.484,4.623-1.206a19.668,19.668,0,0,1,11.061,5.781,5.847,5.847,0,0,0,5.964,1.642,3.374,3.374,0,0,1,2.881.951c1.7,2.28,2.958,5.264,6.106,5.51a61.4,61.4,0,0,0,12.3-.2c3.235-.4,5.078-2.607,6.492-5.9,1.24-2.891,4.4-4.967,6.746-7.368a1.25,1.25,0,0,1,1.07-.288c2.8,1.04,5.258.814,7.351-1.59.189-.217,1.269.419,1.956.54,1.675.294,3.5,1.058,5.019.674,5.27-1.335,9.609-.437,12.724,4.246,4.716,7.092,11.442,7.585,18.873,5.872.8-.185,1.593-.434,2.77-.758.594,5.052,4.034,7.4,7.982,9.4a3.233,3.233,0,0,1,1.389,2.456,15.772,15.772,0,0,0,5.266,12.326,15.212,15.212,0,0,1,4.912,10.9,33.84,33.84,0,0,1-5.591-1.87,4.413,4.413,0,0,0-5.7.726c-1.795,1.694-3.517,1.952-5.482.288a6.693,6.693,0,0,0-2.271-1.151c-2.265-.726-3.157-.05-3.106,2.39a50.84,50.84,0,0,0,2.252,13.267c1.769,6.1,2.842,12.269,8.193,17.446-3.918,2.114-7.051,4.293-10.519,5.556-4.6,1.677-9.539,2.42-14.2,3.97-4.87,1.621-9.3,4.054-10.331,9.8-.194,1.077.381,2.355.018,3.323a13.5,13.5,0,0,1-2.282,3.084c-.761-.682-1.793-1.228-2.219-2.077-.663-1.32-.667-2.985-1.384-4.261-2.2-3.921-6.113-5.4-10.749-4.048-3.179.926-6.214,2.357-9.409,3.2a22.67,22.67,0,0,1-7.524.924c-3.565-.307-6.593-1.524-7.661-5.836-1.389-5.607-2.758-6.051-8.376-4.644a3.162,3.162,0,0,1-2.807-.934,29.3,29.3,0,0,1-2.791-7.576c-.712-4.08-.728-8.277-1.271-12.393a6.192,6.192,0,0,0-4.23-4.941c-3.682-1.5-4.422-1.158-5.57,2.581s-3.033,7.133-6.494,8.991c-1.573.844-3.936.655-5.841.339-2.623-.436-5.136-1.5-7.728-2.169a36.369,36.369,0,0,0-4.1-.576,9.182,9.182,0,0,1,.889-.662c5.324-2.849,5.829-4.467,3.006-9.661-1.806-3.324-3.981-3.953-6.88-1.555-3.135,2.593-5.854,5.693-9.023,8.239a22.767,22.767,0,0,1-6.85,3.793c-1.411.475-3.31-.17-4.875-.668-.51-.163-.95-1.462-.929-2.228.149-5.554-2.244-7.683-7.7-6.634A49.486,49.486,0,0,0,160.7,568.7c-4.317,1.3-5.089,2.608-4.52,7.014.387,3,.764,6.01.91,9.027.139,2.89-1.067,3.644-3.679,2.367-3.47-1.7-6.863-3.547-9.631-4.989-.519-3.17-.991-6.013-1.443-8.859-.056-.355-.15-.83.022-1.075,2.856-4.078-.043-6.771-2.209-9.719a5.784,5.784,0,0,1-1.42-3.375,13.52,13.52,0,0,0-2.852-9.563c-1.611-2.176-1.075-3.844.172-6.145,2.392-4.415,5.9-4.447,10.156-4.275a20.37,20.37,0,0,0,9.212-1.818C157.494,536.309,158.815,533.726,160.605,531.7Z" transform="translate(-42.738 -203.856)" fill="none" stroke="#66e5bf" stroke-width="1"/>
    <path id="Overijssel" d="M515.932,334.138c-.693,3.514-1.4,6.538-1.833,9.6a4.938,4.938,0,0,0,.646,3.213c1.834,2.687,1.778,3.926-.892,5.968-3.373,2.579-6.96,4.906-10.146,7.693a66.276,66.276,0,0,0-7.561,8.028c-3.975,4.868-6.184,5.565-11.91,3.2a5.74,5.74,0,0,0-1.633-.461c-3.718-.333-6.194-1.545-6.632-5.974-.329-3.326-2.106-3.917-5.535-3.313a8.072,8.072,0,0,1-2.421-.309c-2.41-.358-4.823-1.041-7.228-1.012-5.074.06-8.791-2.35-10.446-7.266-1.569-4.662-5.442-5.688-8.679-1.924-2.6,3.021-5.466,3.329-8.92,2.457-3.208-.81-6.415-1.639-9.655-2.3a3.916,3.916,0,0,1-3.565-3.731,11.545,11.545,0,0,0-6.588-9.327c-2.548-1.273-2.411-1.728-.44-3.905a85.544,85.544,0,0,0,5.772-7.273c1.185-1.636.868-3.056-.906-4.349a3.731,3.731,0,0,1-1.238-2.89c.225-2.346-.15-4.283-2.006-5.875-2.216-1.9-4.239-4.046-6.579-5.772-1.579-1.164-3.174-1.114-4.445,1.059-1.939,3.317-5.135,3.994-7.091-.051a3.276,3.276,0,0,0-1.23-1.532c-6.611-3.171-4.863-10.681-8.113-15.621-1.12-1.7.087-3.162,2.28-3.493,3.627-.548,7.25-1.142,10.842-1.875a5.789,5.789,0,0,0,3.251-1.553c.835-1.054,1.618-2.776,1.318-3.922a4.753,4.753,0,0,0-3.077-2.673c-3.356-.833-3.772-1.335-2.09-4.123.838-1.389.99-2.6-.5-3.707a6.5,6.5,0,0,1-1.944-2.043c-2.894-5.634-8.221-8.456-13.223-11.688a11.131,11.131,0,0,1-1.932-2.121,23.207,23.207,0,0,1,2.717-1.011,2.743,2.743,0,0,1,1.669.165c3.976,1.8,7.315.895,10.338-2.111,1.521-1.512,3.321-1.32,4.85.066a3.548,3.548,0,0,0,4.4.484c2.047-.975,4.3-1.574,6.242-2.7,2.3-1.334,3.839-.71,5.349,1.137a30.468,30.468,0,0,0,4,4.409c1.778,1.461,1.476,2.6.027,3.91a5.843,5.843,0,0,1-1.283,1.111c-4.522,2.071-4.68,5.708-3.571,9.8a8.458,8.458,0,0,0,7.208,6.706c4.814.837,9.766,1.178,14.094,3.907,1.566.988,3.056,1.716,3.258,3.905a3.2,3.2,0,0,0,1.743,2.337,80.211,80.211,0,0,0,9.918,2.006c2.453.329,3.791-.97,4.108-3.561.88-7.185,6.5-9.941,12.814-6.392,1.239.7,2.454,1.439,3.705,2.113,1.711.922,3.134,1.836,3.026,4.25-.053,1.17.976,2.4,1.568,3.583.935,1.859,2.021,3.649,2.845,5.554.963,2.225-.109,3.387-2.336,3.756-3.281.544-3.652,1.111-3.169,4.428a13.2,13.2,0,0,0,6.732,10.006,28.383,28.383,0,0,0,21.087,3.121c6.072-1.388,8.379-.515,10.351,5.494C514.614,325.825,515.113,330.178,515.932,334.138Z" transform="translate(-120.914 -122.013)" fill="none" stroke="#66e5bf" stroke-width="1"/>
    <path id="Friesland" d="M408.476,117.8c-1.985,4.048-3.741,7.438-5.308,10.913-.664,1.473-1.648,3.344-1.246,4.655,1.288,4.2-.5,7.247-3.073,10.017-1.734,1.864-2.7,3.778-1.476,6.1,1.331,2.53,2.959,4.9,6.24,5.22,3.265.317,6.387.775,7.891,4.425a5.771,5.771,0,0,0,2.543,2.2,6.777,6.777,0,0,1,3.64,7.153c-.725,4.882,1.814,7.721,5.466,9.95,1.706,1.04,1.969,2.081,1.036,3.691A48.869,48.869,0,0,1,420.8,188c-2.069,2.633-4.713,2.81-7.115.494-2.15-2.073-4.172-1.976-6.307-.3-1.562,1.226-2.916,2.722-4.5,3.912-1.628,1.223-3.476,2.15-5.13,3.342a9.238,9.238,0,0,0-2.8,2.67c-2.684,4.856-7.905,5.544-12.266,7.6-.559.264-1.705-.491-2.477-.947-2.289-1.349-4.337-1.552-6.4.544-2.275,2.312-4.91,3.438-8.213,1.892a4.955,4.955,0,0,0-3.309-.426c-2.612.881-4.179-.171-6.093-1.869-5.885-5.218-15.666-5.925-22.609-2.2a4.006,4.006,0,0,1-3.489-.185,14.566,14.566,0,0,0-9.6-2.809,5.7,5.7,0,0,1-6.16-4.429,2.985,2.985,0,0,1,.605-2.466,12.141,12.141,0,0,0,3.465-9.325c-.331-5.451-1.13-10.874-1.769-16.3a2.891,2.891,0,0,0-.613-1.572c-2.929-3.105-1.5-6.042-.184-9.368a125.584,125.584,0,0,0,4.8-15.387,10.076,10.076,0,0,1,4.8-6.671,25.716,25.716,0,0,0,7.788-7.307c1.387-1.916,3.816-3.263,6.027-4.365,5.922-2.951,11.955-5.685,17.992-8.4,2.8-1.26,5.712-2.286,8.582-3.392,1.147-.442,2.513-.561,3.451-1.264,4.418-3.312,9.589-3.763,14.792-4.24a23.927,23.927,0,0,0,3.894-.741c3.26-.86,4.806-.091,5.732,3.16a12.434,12.434,0,0,1,.619,4.18c-.181,2.5,1.018,3.457,3.261,3.623,2.548.188,5.112.264,7.637.614C406.131,116.188,406.958,116.961,408.476,117.8Z" transform="translate(-99.581 -75.973)" fill="none" stroke="#66e5bf" stroke-width="1"/>
    <path id="Zuid-Holland" d="M155.94,380.927c3.495.15,6.437.232,9.37.446.51.038,1.348.591,1.4.987a12.629,12.629,0,0,1,0,4.119,13.234,13.234,0,0,1-1.592,3.311c-1.63,3.024-3.067,6.27-.466,9.244,2.466,2.819,6.043,1.53,9.129,1.162,1.169-.139,2.367-1.452,3.219-2.5a44.46,44.46,0,0,1,4.466-5.451,32.6,32.6,0,0,0-.421,4.534,6.463,6.463,0,0,0,.987,3.311c.2.29,1.98-.115,2.705-.651,2.206-1.628,3.544-1.037,5.086,1.052,1.67,2.263,3.862,4.134,5.751,6.244a22.431,22.431,0,0,1,1.8,2.662c-1.019.534-2.033,1.075-3.058,1.6a2.266,2.266,0,0,1-.555.116c-5.324,1.119-4.809,1.12-2.887,5.93,1.346,3.369,2.462,6.658,5.9,9.409-3.6,1.045-6.055,2.38-5.824,5.687.057.821,1.249,1.563,1.962,2.39.145,1.309-.042,3.123.6,4.576a40.789,40.789,0,0,0,3.848,6.277c1.48,2.179,3.278,2.52,4.83.449,2.239-2.987,5.4-3.058,8.515-3.8a23.841,23.841,0,0,0,6.322-2.691c1.824-1.063,3.215-3.247,5.729-1.933,2.388,1.248,4.673,6.306,3.944,8.562a41.46,41.46,0,0,1-2.182,5.84,7.618,7.618,0,0,1-2.487,2.5c-1.892,1.342-3.883,2.546-5.858,3.766a14.8,14.8,0,0,1-3.631,2.006c-2.662.716-2.905,1.29-1.78,3.938.51,1.2,3.05,2.265,1.139,3.685-1.075.8-3.125.443-4.719.342a15.64,15.64,0,0,1-3.862-.885,4.61,4.61,0,0,0-5.344,1.452,8.053,8.053,0,0,1-7.171,2.575c-1.413-.135-3.636.687-4.331,1.8-4.05,6.485-9.587,10.109-17.3,10.746-2.767.228-5.4,1.811-8.177,2.23a22.334,22.334,0,0,1-16.015-3.581c-5.766-3.819-11.217-8.129-17.1-11.75-4.387-2.7-9.347-4.457-13.837-7.013-1.94-1.1-3.361-3.138-4.974-4.793s-3.151-3.324-1.721-6c.158-.3-1.368-1.933-2.357-2.31-3.235-1.233-3.118-1.049-1.685-4.263a13.093,13.093,0,0,0,.872-5.123c.017-2.36.531-2.92,2.823-2.186,2.252.721,4.453,1.614,6.723,2.268,2.062.594,3.359.071,3.032-2.487A10.019,10.019,0,0,1,119.5,430.4c6.062-6.773,12.5-13.292,17.861-20.59,6.373-8.675,11.784-18.055,17.6-27.137C155.457,381.891,155.869,381.055,155.94,380.927Z" transform="translate(-32.432 -163.673)" fill="none" stroke="#66e5bf" stroke-width="1"/>
    <path id="Drenthe" d="M451.741,175.631c2.926.2,3.981-1.019,3.906-3.741-.189-6.984,4.293-11.48,8.943-15.7,2.523-2.289,6.223-.626,7.242,2.663a6.264,6.264,0,0,0,2.609,3.331c1.807,1.027,3.133,2.027,3.865,4.155,1.375,4,5,5.349,8.924,3.729,4.351-1.795,5.518-1.2,8.709,2.393,5.777,6.5,11.888,12.706,17.791,19.1,1.463,1.584,2.617,3.448,4,5.11,1.616,1.937,3.438,3.711,4.949,5.721a5.322,5.322,0,0,1,1.208,3.389c-.624,4.988.866,8.236,5.447,10.2,1.954.838,2.161,1.786,1.637,3.683a56.548,56.548,0,0,0-1.883,22.177,40.289,40.289,0,0,1,.1,5.964c-.08,3.045-1.572,4.734-4.578,4.494-4.23-.339-8.442-1.022-12.626-1.764-5.114-.907-10.033-1.365-14.882,1.423-1.23.708-3.552.192-5.084-.448-2.516-1.05-4.742-2.768-7.187-4.016a9.02,9.02,0,0,0-13.195,7.378c-.159,2.164-1.04,3.494-3.378,3.09-2.954-.509-5.9-1.089-8.8-1.857-.546-.145-.789-1.337-1.225-2.012-.7-1.079-1.2-2.652-2.2-3.1a120.671,120.671,0,0,0-11.319-4.276c-1.775-.588-3.733-.6-5.557-1.075-4.252-1.1-7.174-6.565-5.607-10.6.34-.874,1.352-1.51,2.11-2.194,1.119-1.01,2.376-1.879,3.414-2.962,1.5-1.56,1.444-3.09-.221-4.666-2.129-2.015-4.1-4.192-6.131-6.314-1.085-1.136.1-4.842,2.4-5.563,4.067-1.277,6.407-4.554,9.465-7,1.987-1.588,3.694-2.629,6.031-.148,2.211,2.348,6.5,1.88,8.549-.87a44.136,44.136,0,0,0,4.264-7.655c.793-1.681.086-3.122-1.594-4.026-3.746-2.016-5.682-4.817-5.21-9.4C457,180.639,455.14,177.682,451.741,175.631Z" transform="translate(-136.992 -92.125)" fill="none" stroke="#66e5bf" stroke-width="1"/>
    <path id="Noord-Holland" d="M233.392,276.354c.98,3.46,1.634,6.474,2.7,9.336,1.219,3.277,2.846,6.4,4.218,9.624a12.26,12.26,0,0,1-.131,10.445,3.717,3.717,0,0,0,.451,3.111c1.374,1.931,1.188,3.578-.425,5.048-1.818,1.657-3.939,3-5.661,4.737a29.2,29.2,0,0,0-3.061,4.446,24.742,24.742,0,0,0,4.4,2.724,13.385,13.385,0,0,0,5.543.954,16.1,16.1,0,0,1,10.218,2.75c3.324,2.086,6.8,3.694,10.906,3.518,1.967-.084,2.848,1.969,1.936,3.778-1.523,3.023-2.56,6.357-4.461,9.105-1.767,2.555-4.312,4.613-6.71,6.66-.52.443-1.931.05-2.81-.28-.215-.081-.11-1.486.122-2.194.971-2.97-1.247-5.228-5.29-5.438a17.363,17.363,0,0,1-3.052-.7,27.776,27.776,0,0,1,1.012-3.591c.359-.851,1.446-1.517,1.525-2.331a3.78,3.78,0,0,0-.934-2.929c-1.639-1.306-3.7-2.073-5.4-3.321-2.592-1.907-3.64-1.732-4.9,1.2-1.227,2.864-6.645,6.033-9.793,5.93-1.027-.034-2.627.189-3.016.85-1.79,3.052-4.669,4.219-7.738,5.316a42.162,42.162,0,0,0-4.793,2.489,56.017,56.017,0,0,0,.39-5.944,8.474,8.474,0,0,0-1.094-2.671,9.692,9.692,0,0,0-2.269,1.364,22.975,22.975,0,0,0-2.349,3.2c-2.51,3.8-5.828,5.175-10.065,3.895-2.3-.7-2.6-2.7-2.045-4.637A26.608,26.608,0,0,1,193,338.2c1.237-2.424,1.987-4.855,1.084-7.631-.572-1.758-1.418-2.581-3.315-2.072a9.5,9.5,0,0,1-2.249.265c-4.852.1-5.393-.962-3.966-5.485,1.728-5.478,2.972-11.11,4.371-16.689,1.769-7.055,3.657-14.087,5.147-21.2A54.785,54.785,0,0,0,195,274.7c.089-9.954,2.936-19.4,4.917-29.02,1.559-7.574,2.66-15.247,3.765-22.905a4.913,4.913,0,0,1,4.291-4.261c1.1-.226,3.032.979,3.763,2.084,1.871,2.83,3.179,6.024,4.9,8.961,1.592,2.715,3.707,4.806,7.254,4.6,2-.113,3.076-.806,3.166-3.067.26-6.531,3.872-8.665,9.921-6.034a13.966,13.966,0,0,1,8.05,16.972c-2.489,8.55,1.042,13.6,10,14.318a43.983,43.983,0,0,0,5.649.469c2.791-.141,3.155,1.276,2.881,3.533-.748,6.149-4.246,10.114-9.713,12.667-5.553,2.592-11.5,2.983-17.463,3.329C235.735,276.387,235.085,276.354,233.392,276.354Z" transform="translate(-58.261 -112.2)" fill="none" stroke="#66e5bf" stroke-width="1"/>
    <path id="Groningen" d="M439.029,97.2a35.587,35.587,0,0,1,4.056.943c1.949.687,3.765,1.84,5.753,2.3,2.767.647,5.424-.074,7-2.6a6.871,6.871,0,0,1,6.751-3.349c6.5.51,12.529-1.063,18.6-3.113a80.591,80.591,0,0,1,13.239-3.072c8.045-1.265,13.429,3.5,14.1,12.115.511,6.551,3.436,10.3,9.8,12.305,2.613.825,5.287,1.473,7.961,2.088,4.007.92,6.351,3.362,6.656,7.434a2.779,2.779,0,0,0,2.435,2.875c5.389,1.5,8.027,4.758,7.855,10.31-.159,5.092-.689,10.184-1.292,15.247-.594,4.976-.45,9.791,1.463,14.51a5.389,5.389,0,0,1,.2,3.546c-2.928,7.987-6.02,15.913-9.053,23.862-.523,1.371-1.349,1.5-2.683,1.008-3.817-1.4-5.8-4.686-4.886-8.732.555-2.457-.062-3.985-2.278-5.443-1.723-1.134-2.822-3.21-4.207-4.86-1.752-2.086-3.451-4.219-5.281-6.234-5.6-6.167-11.386-12.166-16.816-18.475-2.75-3.195-5.295-4.342-9.105-2.864-4.837,1.875-6.075.871-8.659-3.572-2.12-3.645-5.839-6.216-8.34-9.822-1.308-1.886-4.81-1.752-6.782.032a40.43,40.43,0,0,0-7.462,8.469c-1.4,2.282-1.535,5.36-2.162,8.1-.567,2.473-3.209,3.582-4.677,1.657-2.031-2.666-4.794-3.36-7.7-3.623-2.515-.228-3.948-1.683-5.238-3.45a3.62,3.62,0,0,1,.261-5.091,34.246,34.246,0,0,0,3.915-6.171,3.742,3.742,0,0,0,.334-2.732c-1.152-3.114-.15-5.439,1.65-8.087a29.773,29.773,0,0,0,3.477-8.6c.821-2.884-.377-4.3-4.276-5.835-1.226-.482-2.589-.62-3.8-1.129-2.681-1.127-3.051-2.6-1.09-4.63,1.508-1.563,2.24-2.928-.563-4.432Z" transform="translate(-138.588 -70.89)" fill="none" stroke="#66e5bf" stroke-width="1"/>
    <path id="Limburg" d="M387.633,525.212c2.079.461,4.093.574,5.8,1.355a59.288,59.288,0,0,1,11.022,5.947c1.092.818.472,3.918.679,6.539,6.043,1.12,7.247,6.742,8.672,12.068,1.579,5.9,3.661,11.366,9.209,14.788a3.546,3.546,0,0,1,1.133,2.142c2.946,13.472-.055,25.709-7.88,36.877-1.954,2.789-4.133,5.424-6.253,8.1-2.508,3.159-3.125,6.613-1.566,9.155,1.492,2.432,5.2,3.555,8.94,2.685a5.948,5.948,0,0,1,2.681-.226,30.937,30.937,0,0,1-3.685,4.606c-2.72,2.346-5.755,4.321-8.566,6.566-4.047,3.231-8.011,6.563-12.419,10.19.6.1.415.1.25.038-1.582-.606-3.876-2.168-4.587-1.633a6.732,6.732,0,0,0-2.418,4.938A24.244,24.244,0,0,0,390.719,658c1.186,2.638,3.524,2.821,5.964,1.172,2.884-1.95,5.154-1.251,6.343,1.974a17.43,17.43,0,0,1,.637,2.18c.935,4.128,2.808,7.285,7.993,7.225-.71,3.106-1.291,5.937-2.036,8.724a4.5,4.5,0,0,1-1.4,2.1c-2.81,2.4-5.628,4.8-8.579,7.024-2.617,1.97-2.629,3,.326,4.623,1.036.568,2.112,1.066,3.17,1.6q-.017.462-.036.926a11.536,11.536,0,0,1-3.222.677c-4.994-.407-9.988-.883-14.956-1.532-2.6-.341-5.458.3-7.691-2.046-.505-.531-2.336-.035-3.459.306-1.872.568-3.665,1.391-5.5,2.112-.262-.5-.562-.836-.49-.961,1.983-3.436.732-5.869-1.9-8.487s-2.9-6.139-1.113-9.486c1.65-3.084,3.6-6,5.319-9.056a50.944,50.944,0,0,0,3.956-7.82,11.39,11.39,0,0,0,.374-6.031,9.914,9.914,0,0,1,1.752-8.558c1.058-1.456,2.207-2.847,3.295-4.282,1.647-2.175,2.556-4.391.813-7.031a2.9,2.9,0,0,1,.121-2.284c1.167-2.717.829-4.351-1.941-5.428-3.158-1.228-6.533-1.889-9.77-2.932a110.327,110.327,0,0,1-12.507-4.778c4.067-1.605,4.061-4.256,3.67-7.59-.422-3.608,4.13-7.889,9.157-9.325,4.816-1.376,9.8-2.3,14.458-4.06,3.565-1.349,6.783-3.647,10.059-5.679.436-.271.546-1.523.368-2.208a6.13,6.13,0,0,0-1.4-2.433A19.139,19.139,0,0,1,387.61,574.8a5.919,5.919,0,0,0-.612-2.735c-2.752-4.179-2.124-8.872-2.414-14a24.3,24.3,0,0,1,3.427,1.748c2.084,1.545,4.085,1.5,5.924-.208a4.572,4.572,0,0,1,5.892-.749,14.272,14.272,0,0,0,3.763,1.23c2.552.542,3.543-.509,3.067-3.049a20.791,20.791,0,0,0-6.321-11.212,11,11,0,0,1-3.6-9.138c.168-2.706-.905-4.41-3.513-5.457C390.433,530.113,388.2,528.25,387.633,525.212Z" transform="translate(-112.863 -209.393)" fill="none" stroke="#66e5bf" stroke-width="1"/>
    <path id="Utrecht" d="M237.744,434.709l-4.692-1.165c-.417-2.272,1.267-2.79,2.9-3.276,1.972-.588,3.075-2.108,1.54-3.5-3.433-3.123-3.466-7.89-6.4-11.616,1.969-.456,3.785-.781,5.542-1.307,3.212-.961,3.793-3.638,1.411-6.01-2.841-2.829-5.646-5.695-8.1-8.178,2.4-2.253,4.242-4.024,6.135-5.744.461-.419,1.084-.96,1.621-.947,5.951.139,10.1-2.533,12.777-8.083l7.722,5.082a12.3,12.3,0,0,0-1.911,2.864c-.48,1.441-1.064,3.268-.549,4.483.389.917,2.4,1.5,3.744,1.6,3.8.279,4.678,1.208,3.813,4.727-.605,2.462,1.7,4.41,4.582,3.292a14.1,14.1,0,0,0,8.549-8.484c1.123-3.057,2.655-5.964,3.953-8.824,3.953,2.017,7.373,3.748,10.773,5.52a1.667,1.667,0,0,1,.667.866c1.091,2.965,2.148,5.944,3.34,9.265-2.017,3.407-1.8,4.07,2.49,6.08.856.4,1.773.669,2.636,1.054a3.852,3.852,0,0,1,1.575,6.057c-.671.912-1.827,1.683-2.032,2.67a5.326,5.326,0,0,0,.577,3.8c.4.565,2.16.308,3.279.174.59-.07,1.123-.661,1.672-1.032,3.664-2.478,4.589-2.28,4.6,2.135.021,5.925,2.465,10.507,6.037,14.878,1.3,1.59,3.377,3.789,1.467,5.66-.8.781-3.773-.353-5.608-1.025a17.082,17.082,0,0,1-4.056-2.594c-4.239-3.159-8.695-3.292-13.382-1.144-2.058.944-4.114,1.915-6.241,2.679-2.791,1-5.31.913-7.292-1.886a3.148,3.148,0,0,0-3.006-.646c-5.375,3.386-8.079.525-11.956-2.888-3.206-2.821-4.9-3.57-8-.7-2.856,2.64-6.045,3.434-9.709,3.935a12.292,12.292,0,0,0-5.8,3.038c-1.746,1.494-2.8,1.725-3.951-.384a14.772,14.772,0,0,0-.975-1.4C234.333,439.275,234.333,439.275,237.744,434.709Z" transform="translate(-72.86 -164.926)" fill="none" stroke="#66e5bf" stroke-width="1"/>
    <g id="Flevoland" transform="translate(190.006 127.731)">
      <path id="Flevoland-2" data-name="Flevoland" d="M278.271,349.082c-.753-3.612,1.851-5.532,5.19-7.4a40.066,40.066,0,0,1,13.5-4.854c.94-.148,1.889-1.334,2.494-2.263,1.051-1.613,2.127-2.263,3.989-1.249a6.015,6.015,0,0,0,2.288.208,17.028,17.028,0,0,1,.085-2.084,13.315,13.315,0,0,1,.807-3.812,73.432,73.432,0,0,1,4.137-7.1c1.088-1.68,2.37-3.129,4.78-2.985a2.973,2.973,0,0,0,2.135-1.439c2.525-4.493,6.586-6.666,11.4-7.6a6.461,6.461,0,0,1,3.748.614c4.561,2.193,9.119,4.1,14.376,3.7,2.544-.193,4.218,1.456,5.333,3.607,2.92,5.628,2.021,11.037-1.282,16.116-3.18,4.888-6.74,9.355-13.165,10.278a5.824,5.824,0,0,0-4.85,4.3c-.752,2.508-2.411,3.472-4.944,3.165-.751-.091-1.512-.1-2.269-.143-2.13-.115-2.721.863-2.616,2.964a37.021,37.021,0,0,1-.428,7.74c-.6,3.7-3.374,5.272-6.669,6.592-5.186,2.077-9.1,1.447-12.9-3.065a52.794,52.794,0,0,0-10.748-9.139c-2.865-1.954-6.222-3.093-9.574-.048-1.636,1.486-4.453-.167-4.791-2.573A30.284,30.284,0,0,1,278.271,349.082Z" transform="translate(-278.141 -268.431)" fill="none" stroke="#66e5bf" stroke-width="1"/>
      <path id="Path_72" data-name="Path 72" d="M391.1,272.359l-7.553,9.495,7.59,1.652-.032,1.01c-7.207.126-13.351,4.539-20.855,3.885-3.23-.282-6.581.734-9.883,1.1a6.78,6.78,0,0,1-6.606-3.138c-1.242-1.694-2.813-3.167-4.122-4.821a6.34,6.34,0,0,1-1.554-2.834,73.31,73.31,0,0,1-.723-10.893,10.092,10.092,0,0,1,3.5-7.264c2.6-2.43,4.181-5.827,6.285-8.752,2.372-3.3,3.862-3.689,7.567-1.763,1.624.844,3.578,1.834,4.37,3.26,2.115,3.811,5.9,5.6,9.2,8.089C382.855,264.83,386.981,268.791,391.1,272.359Z" transform="translate(-303.492 -248.879)" fill="none" stroke="#66e5bf" stroke-width="1"/>
    </g>
    <g id="Zeeland" transform="translate(0 297.671)">
      <path id="Path_46" data-name="Path 46" d="M0,614.86c3.9-1.42,7.857-2.716,11.7-4.289,5.209-2.133,9.89-2.273,13.943,2.4a6.269,6.269,0,0,0,3.509,1.691,20.563,20.563,0,0,1,11.964,6.54c2.713,2.9,2.886,2.732,5.584-.052,1.093-1.128,2.113-1.372,3.36-.051,2.293,2.431,4.479,2.338,6.863.348a15.93,15.93,0,0,1,5.2-3c1.954-.62,2.963-1.405,2.758-3.531-.241-2.517,1.15-3.99,3.472-4.424,2.251-.421,3.248,1.2,3.812,3.024.826,2.67,2.827,3.888,5.3,4.633,1.7.512,3.394,1.066,4.511,1.418,1.371-.42,2.349-.647,3.265-1.025.678-.279,1.572-.607,1.853-1.171,1.012-2.028,2.3-1.986,3.884-.817a10.235,10.235,0,0,1,2.61,2.135c.471.708.757,2.215.339,2.73-2.847,3.5-5.815,6.916-8.922,10.191-2.146,2.261-4.576,4.255-6.883,6.365-1.579,1.444-3.138,2.567-5.594,1.891-.818-.225-2.3.705-3,1.52a8.62,8.62,0,0,1-7.186,3.275c-1.536-.02-3.084.928-4.474,1.934-.177-.035-.46-.012-.516-.114-1.48-2.7-3.031-3.23-6.092-1.586-3.081,1.656-6.509-1.049-6.785-4.614a15.911,15.911,0,0,0-.125-3.39c-.289-.92-1.051-2.151-1.85-2.376-3.677-1.036-7.064-3.293-11.226-2.569-.879.152-2.065-1.089-3.019-1.808-2.488-1.876-2.513-1.9-4.419.527-3.5-1.062-4.856-.146-5.153,3.472-.331,4.024-1.706,5.263-5.619,4.646-5.058-.8-10.135-1.917-11.992-7.575A10.254,10.254,0,0,1,.885,624.9,8.262,8.262,0,0,0,0,617.135Z" transform="translate(0 -533.661)" fill="none" stroke="#66e5bf" stroke-width="1"/>
      <path id="Path_49" data-name="Path 49" d="M127.057,532.616c-2.686.475-4.962.13-6.891-2.153-.885-1.048-2.639-1.368-4-2.006a19,19,0,0,1-3.817-1.816,14.109,14.109,0,0,0-8.767-3.45c-3.4-.036-4.74-2.26-5.433-5.162-.569-2.384-1.06-4.794-1.769-7.137-1.021-3.377-2.458-4.249-5.952-3.31-2.814.757-5.48,2.051-8.28,2.879-1.016.3-2.778.364-3.223-.215-.715-.93-1.221-2.811-.735-3.7a10.62,10.62,0,0,1,3.955-4.076,38.153,38.153,0,0,1,8.891-3.632,8.279,8.279,0,0,1,5.593.771c3.851,2.189,7.377,4.942,11.1,7.369,2.521,1.644,5.216,3.026,7.71,4.706a30.866,30.866,0,0,1,4.167,3.61c1.071,1.045,1.821,2.484,3.011,3.331,3.839,2.735,7.8,5.3,11.742,7.882,2.424,1.583,2.6,3.292-.038,4.641-2.17,1.11-4.733,1.455-7.121,2.14Z" transform="translate(-24.714 -498.647)" fill="none" stroke="#66e5bf" stroke-width="1"/>
      <path id="Path_50" data-name="Path 50" d="M66.111,534.3c-1.5,1.23-3.16,2.752-4.982,4.05-2.657,1.892-7.646,1.494-10.019-.646-1.982-1.786-1.709-6.094.7-7.831,4.781-3.451,9.786-5.9,16.083-4.4,3.933.939,8.055,1.077,12.085,1.623,3.235.439,5.814,1.932,6.782,5.2.909,3.066,3.211,3.655,5.873,3.885,4.351.376,5.835,3.235,3.166,6.726-2.947,3.855-7.264,5.652-11.956,6.463-.606.1-1.352-.509-2.013-.831a24.1,24.1,0,0,0-4.2-2.034c-2.127-.554-2.576-2.107-2.739-3.815C74.624,539.927,67.877,535.773,66.111,534.3Z" transform="translate(-15.778 -507.004)" fill="none" stroke="#66e5bf" stroke-width="1"/>
      <path id="Path_71" data-name="Path 71" d="M69.007,586.838c-1.012,1.145-2.032,2.245-2.99,3.4-1.452,1.748-2.773,3.613-4.305,5.287-4.285,4.683-6.811,4.724-11.566.607-1.077-.932-2.664-1.248-3.873-2.06a29.515,29.515,0,0,1-5.285-4.05c-3.858-4.141-4.411-4.31-9.332-1.629a3.07,3.07,0,0,1-2.351.271c-5.837-2.629-10.811-6.333-13.768-12.182-2.02-4-.806-6.772,3.589-7.982,2.827-.778,5.486-1.493,7.87-3.457,1.92-1.582,4.416-1.237,6.111.814,2.167,2.623,4.106,5.434,6.181,8.135,3.776,4.916,6.219,5.012,10.6.718,3.491-3.42,8.079-3.3,12-1.866,4.435,1.62,8.518,4.4,12.464,7.1,3.82,2.613,7.159,5.917,10.915,8.636,4.4,3.183,9.252,4.7,14.745,2.909.667-.217,2.225.247,2.3.62a24.293,24.293,0,0,1,.533,5.935c-.015.378-1.671,1.091-2.47.974-4.771-.7-9.514-1.59-14.264-2.427a25.385,25.385,0,0,1-15.329-8.531,6.74,6.74,0,0,0-.819-.785A6.1,6.1,0,0,0,69.007,586.838Z" transform="translate(-4.623 -519.372)" fill="none" stroke="#66e5bf" stroke-width="1"/>
      <path id="Path_73" data-name="Path 73" d="M120.353,558.371l-5.848-3.664c3.918-2.885,8.031-1.756,12.6-1.954-1.3,1.79-2.229,3.249-3.331,4.567-1.825,2.185-1.922,4.229-.335,6.687,1.91,2.959,4.23,5.966,2.351,10.177-5.383-1.378-10.879-2.62-16.267-4.226a11.247,11.247,0,0,1-6.738-6.152c-1.062-2.112-.468-3.8,1.7-4.1a82.183,82.183,0,0,1,10.111-.379c1.808-.02,3.617.153,5.425.24Q120.184,558.972,120.353,558.371Z" transform="translate(-32.406 -515.773)" fill="none" stroke="#66e5bf" stroke-width="1"/>
      <path id="Path_81" data-name="Path 81" d="M51.935,569.433l-7.309-7.81a5.377,5.377,0,0,1,6.256-1.909,28.542,28.542,0,0,0,13.141.463c1.969-.347,4.425,1.441,6.474,2.59.519.291.779,2.18.36,2.748a7.431,7.431,0,0,1-3.137,2.034c-.48.2-1.282-.2-1.877-.464C60.831,564.864,56.116,564.7,51.935,569.433Z" transform="translate(-14.141 -517.899)" fill="none" stroke="#66e5bf" stroke-width="1"/>
    </g>
  </g>
</svg>
