<svg xmlns="http://www.w3.org/2000/svg" xmlns:xlink="http://www.w3.org/1999/xlink" width="63" height="63" viewBox="0 0 63 63">
  <defs>
    <clipPath id="clip-path">
      <rect id="Rectangle_286" data-name="Rectangle 286" width="63" height="63" transform="translate(193 714)" fill="none" stroke="#66e5bf" stroke-width="1"/>
    </clipPath>
  </defs>
  <g id="Group_222" data-name="Group 222" transform="translate(-193 -751)">
    <g id="Mask_Group_5" data-name="Mask Group 5" transform="translate(0 37)" clip-path="url(#clip-path)">
      <g id="Group_206" data-name="Group 206" transform="translate(0 -185)">
        <g id="Ellipse_107" data-name="Ellipse 107" transform="translate(195 902)" fill="#fff" stroke="#66e5bf" stroke-width="1">
          <circle cx="1" cy="1" r="1" stroke="none"/>
          <circle cx="1" cy="1" r="0.5" fill="none"/>
        </g>
        <g id="Ellipse_108" data-name="Ellipse 108" transform="translate(209 902)" fill="#fff" stroke="#66e5bf" stroke-width="1">
          <circle cx="1" cy="1" r="1" stroke="none"/>
          <circle cx="1" cy="1" r="0.5" fill="none"/>
        </g>
        <g id="Ellipse_109" data-name="Ellipse 109" transform="translate(223 902)" fill="#fff" stroke="#66e5bf" stroke-width="1">
          <circle cx="1" cy="1" r="1" stroke="none"/>
          <circle cx="1" cy="1" r="0.5" fill="none"/>
        </g>
        <g id="Ellipse_110" data-name="Ellipse 110" transform="translate(237 902)" fill="#fff" stroke="#66e5bf" stroke-width="1">
          <circle cx="1" cy="1" r="1" stroke="none"/>
          <circle cx="1" cy="1" r="0.5" fill="none"/>
        </g>
        <g id="Ellipse_111" data-name="Ellipse 111" transform="translate(251 902)" fill="#fff" stroke="#66e5bf" stroke-width="1">
          <circle cx="1" cy="1" r="1" stroke="none"/>
          <circle cx="1" cy="1" r="0.5" fill="none"/>
        </g>
        <g id="Ellipse_112" data-name="Ellipse 112" transform="translate(201 916)" fill="#fff" stroke="#66e5bf" stroke-width="1">
          <circle cx="1" cy="1" r="1" stroke="none"/>
          <circle cx="1" cy="1" r="0.5" fill="none"/>
        </g>
        <g id="Ellipse_113" data-name="Ellipse 113" transform="translate(215 916)" fill="#fff" stroke="#66e5bf" stroke-width="1">
          <circle cx="1" cy="1" r="1" stroke="none"/>
          <circle cx="1" cy="1" r="0.5" fill="none"/>
        </g>
        <g id="Ellipse_114" data-name="Ellipse 114" transform="translate(229 916)" fill="#fff" stroke="#66e5bf" stroke-width="1">
          <circle cx="1" cy="1" r="1" stroke="none"/>
          <circle cx="1" cy="1" r="0.5" fill="none"/>
        </g>
        <g id="Ellipse_115" data-name="Ellipse 115" transform="translate(243 916)" fill="#fff" stroke="#66e5bf" stroke-width="1">
          <circle cx="1" cy="1" r="1" stroke="none"/>
          <circle cx="1" cy="1" r="0.5" fill="none"/>
        </g>
        <g id="Ellipse_116" data-name="Ellipse 116" transform="translate(257 916)" fill="#fff" stroke="#66e5bf" stroke-width="1">
          <circle cx="1" cy="1" r="1" stroke="none"/>
          <circle cx="1" cy="1" r="0.5" fill="none"/>
        </g>
        <g id="Ellipse_117" data-name="Ellipse 117" transform="translate(195 930)" fill="#fff" stroke="#66e5bf" stroke-width="1">
          <circle cx="1" cy="1" r="1" stroke="none"/>
          <circle cx="1" cy="1" r="0.5" fill="none"/>
        </g>
        <g id="Ellipse_118" data-name="Ellipse 118" transform="translate(209 930)" fill="#fff" stroke="#66e5bf" stroke-width="1">
          <circle cx="1" cy="1" r="1" stroke="none"/>
          <circle cx="1" cy="1" r="0.5" fill="none"/>
        </g>
        <g id="Ellipse_119" data-name="Ellipse 119" transform="translate(223 930)" fill="#fff" stroke="#66e5bf" stroke-width="1">
          <circle cx="1" cy="1" r="1" stroke="none"/>
          <circle cx="1" cy="1" r="0.5" fill="none"/>
        </g>
        <g id="Ellipse_120" data-name="Ellipse 120" transform="translate(237 930)" fill="#fff" stroke="#66e5bf" stroke-width="1">
          <circle cx="1" cy="1" r="1" stroke="none"/>
          <circle cx="1" cy="1" r="0.5" fill="none"/>
        </g>
        <g id="Ellipse_121" data-name="Ellipse 121" transform="translate(251 930)" fill="#fff" stroke="#66e5bf" stroke-width="1">
          <circle cx="1" cy="1" r="1" stroke="none"/>
          <circle cx="1" cy="1" r="0.5" fill="none"/>
        </g>
        <g id="Ellipse_122" data-name="Ellipse 122" transform="translate(201 944)" fill="#fff" stroke="#66e5bf" stroke-width="1">
          <circle cx="1" cy="1" r="1" stroke="none"/>
          <circle cx="1" cy="1" r="0.5" fill="none"/>
        </g>
        <g id="Ellipse_123" data-name="Ellipse 123" transform="translate(215 944)" fill="#fff" stroke="#66e5bf" stroke-width="1">
          <circle cx="1" cy="1" r="1" stroke="none"/>
          <circle cx="1" cy="1" r="0.5" fill="none"/>
        </g>
        <g id="Ellipse_124" data-name="Ellipse 124" transform="translate(229 944)" fill="#fff" stroke="#66e5bf" stroke-width="1">
          <circle cx="1" cy="1" r="1" stroke="none"/>
          <circle cx="1" cy="1" r="0.5" fill="none"/>
        </g>
        <g id="Ellipse_125" data-name="Ellipse 125" transform="translate(243 944)" fill="#fff" stroke="#66e5bf" stroke-width="1">
          <circle cx="1" cy="1" r="1" stroke="none"/>
          <circle cx="1" cy="1" r="0.5" fill="none"/>
        </g>
        <g id="Ellipse_126" data-name="Ellipse 126" transform="translate(257 944)" fill="#fff" stroke="#66e5bf" stroke-width="1">
          <circle cx="1" cy="1" r="1" stroke="none"/>
          <circle cx="1" cy="1" r="0.5" fill="none"/>
        </g>
        <g id="Ellipse_127" data-name="Ellipse 127" transform="translate(195 958)" fill="#fff" stroke="#66e5bf" stroke-width="1">
          <circle cx="1" cy="1" r="1" stroke="none"/>
          <circle cx="1" cy="1" r="0.5" fill="none"/>
        </g>
        <g id="Ellipse_128" data-name="Ellipse 128" transform="translate(209 958)" fill="#fff" stroke="#66e5bf" stroke-width="1">
          <circle cx="1" cy="1" r="1" stroke="none"/>
          <circle cx="1" cy="1" r="0.5" fill="none"/>
        </g>
        <g id="Ellipse_129" data-name="Ellipse 129" transform="translate(223 958)" fill="#fff" stroke="#66e5bf" stroke-width="1">
          <circle cx="1" cy="1" r="1" stroke="none"/>
          <circle cx="1" cy="1" r="0.5" fill="none"/>
        </g>
        <g id="Ellipse_130" data-name="Ellipse 130" transform="translate(237 958)" fill="#fff" stroke="#66e5bf" stroke-width="1">
          <circle cx="1" cy="1" r="1" stroke="none"/>
          <circle cx="1" cy="1" r="0.5" fill="none"/>
        </g>
        <g id="Ellipse_131" data-name="Ellipse 131" transform="translate(251 958)" fill="#fff" stroke="#66e5bf" stroke-width="1">
          <circle cx="1" cy="1" r="1" stroke="none"/>
          <circle cx="1" cy="1" r="0.5" fill="none"/>
        </g>
        <g id="Ellipse_132" data-name="Ellipse 132" transform="translate(201 972)" fill="#fff" stroke="#66e5bf" stroke-width="1">
          <circle cx="1" cy="1" r="1" stroke="none"/>
          <circle cx="1" cy="1" r="0.5" fill="none"/>
        </g>
        <g id="Ellipse_133" data-name="Ellipse 133" transform="translate(215 972)" fill="#fff" stroke="#66e5bf" stroke-width="1">
          <circle cx="1" cy="1" r="1" stroke="none"/>
          <circle cx="1" cy="1" r="0.5" fill="none"/>
        </g>
        <g id="Ellipse_134" data-name="Ellipse 134" transform="translate(229 972)" fill="#fff" stroke="#66e5bf" stroke-width="1">
          <circle cx="1" cy="1" r="1" stroke="none"/>
          <circle cx="1" cy="1" r="0.5" fill="none"/>
        </g>
        <g id="Ellipse_135" data-name="Ellipse 135" transform="translate(243 972)" fill="#fff" stroke="#66e5bf" stroke-width="1">
          <circle cx="1" cy="1" r="1" stroke="none"/>
          <circle cx="1" cy="1" r="0.5" fill="none"/>
        </g>
        <g id="Ellipse_136" data-name="Ellipse 136" transform="translate(257 972)" fill="#fff" stroke="#66e5bf" stroke-width="1">
          <circle cx="1" cy="1" r="1" stroke="none"/>
          <circle cx="1" cy="1" r="0.5" fill="none"/>
        </g>
      </g>
    </g>
    <g id="Rectangle_292" data-name="Rectangle 292" transform="translate(193 751)" fill="none" stroke="#66e5bf" stroke-width="1">
      <rect width="63" height="63" stroke="none"/>
      <rect x="0.5" y="0.5" width="62" height="62" fill="none"/>
    </g>
  </g>
</svg>
